<svg width="24" height="21" viewBox="0 0 24 21" fill="none" xmlns="http://www.w3.org/2000/svg">
<path d="M6.82485 8.92485C7.38181 8.92485 7.91595 8.7036 8.30978 8.30978C8.7036 7.91595 8.92485 7.38181 8.92485 6.82485C8.92485 6.2679 8.7036 5.73376 8.30978 5.33993C7.91595 4.9461 7.38181 4.72485 6.82485 4.72485C6.2679 4.72485 5.73376 4.9461 5.33993 5.33993C4.9461 5.73376 4.72485 6.2679 4.72485 6.82485C4.72485 7.38181 4.9461 7.91595 5.33993 8.30978C5.73376 8.7036 6.2679 8.92485 6.82485 8.92485Z" fill="#377AF6"/>
<path fill-rule="evenodd" clip-rule="evenodd" d="M0 4.2V16.8C0 17.9139 0.442499 18.9822 1.23015 19.7698C2.0178 20.5575 3.08609 21 4.2 21H18.9C20.0139 21 21.0822 20.5575 21.8698 19.7698C22.6575 18.9822 23.1 17.9139 23.1 16.8V4.2C23.1 3.08609 22.6575 2.0178 21.8698 1.23015C21.0822 0.442499 20.0139 0 18.9 0H4.2C3.08609 0 2.0178 0.442499 1.23015 1.23015C0.442499 2.0178 0 3.08609 0 4.2ZM18.9 2.625H4.2C3.78228 2.625 3.38168 2.79094 3.08631 3.08631C2.79094 3.38168 2.625 3.78228 2.625 4.2V14.2233C2.62491 14.2694 2.63697 14.3148 2.65997 14.3547C2.68298 14.3947 2.71611 14.4279 2.75603 14.451C2.79595 14.4741 2.84125 14.4863 2.88737 14.4863C2.93349 14.4863 2.97881 14.4742 3.01875 14.4511L8.4 11.3431C9.35772 10.7902 10.4441 10.4991 11.55 10.4991C12.6559 10.4991 13.7423 10.7902 14.7 11.3431L20.0812 14.4511C20.1212 14.4742 20.1665 14.4863 20.2126 14.4863C20.2588 14.4863 20.3041 14.4741 20.344 14.451C20.3839 14.4279 20.417 14.3947 20.44 14.3547C20.463 14.3148 20.4751 14.2694 20.475 14.2233V4.2C20.475 3.78228 20.3091 3.38168 20.0137 3.08631C19.7183 2.79094 19.3177 2.625 18.9 2.625Z" fill="#377AF6"/>
</svg>
