<svg width="16" height="16" viewBox="0 0 16 16" fill="none" xmlns="http://www.w3.org/2000/svg">
<path fill-rule="evenodd" clip-rule="evenodd" d="M8 0C12.4183 0 16 3.58172 16 8C16 12.4183 12.4183 16 8 16C3.58172 16 0 12.4183 0 8C0 3.58172 3.58172 0 8 0ZM8 2C4.68629 2 2 4.68629 2 8C2 11.3137 4.68629 14 8 14C11.3137 14 14 11.3137 14 8C14 4.68629 11.3137 2 8 2ZM10.4188 5.03912L6.68587 8.77209L5.20668 7.29289L5.11247 7.2097C4.72018 6.90468 4.15295 6.93241 3.79246 7.29289C3.40194 7.68342 3.40194 8.31658 3.79246 8.70711L5.97876 10.8934L6.07297 10.9766C6.46526 11.2816 7.03249 11.2539 7.39298 10.8934L11.8331 6.45333L11.9162 6.35913C12.2213 5.96683 12.1935 5.3996 11.8331 5.03912C11.4425 4.6486 10.8094 4.6486 10.4188 5.03912Z" fill="#C2C6CC"/>
</svg>
