<svg width="24" height="20" viewBox="0 0 24 20" fill="none" xmlns="http://www.w3.org/2000/svg">
<path d="M16.1304 0.86305C15.5692 0.310011 14.8128 0 14.0249 0H9.86936C9.01694 0 8.20477 0.362622 7.63572 0.997284L6.43617 2.33514C6.05681 2.75825 5.51536 3 4.94708 3H4C1.79086 3 0 4.79083 0 7V16C0 18.2092 1.79086 20 4 20H20C22.2091 20 24 18.2092 24 16V7C24 4.79083 22.2091 3 20 3H19.119C18.5937 3 18.0895 2.79333 17.7153 2.42463L16.1304 0.86305Z" fill="#377AF6"/>
<circle cx="12" cy="11" r="5" fill="#377AF6" stroke="white" stroke-width="2"/>
</svg>
