<?xml version="1.0" encoding="UTF-8" standalone="no" ?>
<!DOCTYPE svg PUBLIC "-//W3C//DTD SVG 1.1//EN" "http://www.w3.org/Graphics/SVG/1.1/DTD/svg11.dtd">
<svg xmlns="http://www.w3.org/2000/svg" xmlns:xlink="http://www.w3.org/1999/xlink" version="1.1" width="1080" height="1080" viewBox="0 0 1080 1080" xml:space="preserve">
<desc>Created with Fabric.js 5.2.4</desc>
<defs>
</defs>
<g transform="matrix(1 0 0 1 540 540)" id="17867941-6682-4caa-b268-db436c9eace0"  >
<rect style="stroke: none; stroke-width: 1; stroke-dasharray: none; stroke-linecap: butt; stroke-dashoffset: 0; stroke-linejoin: miter; stroke-miterlimit: 4; fill: rgb(255,255,255); fill-rule: nonzero; opacity: 1; visibility: hidden;" vector-effect="non-scaling-stroke"  x="-540" y="-540" rx="0" ry="0" width="1080" height="1080" />
</g>
<g transform="matrix(1 0 0 1 540 540)" id="9fa08bea-f82c-458e-bcb0-bc1b722eeeff"  >
</g>
<g transform="matrix(0.15 0 0 0.15 895.94 523.3)"  >
<path style="stroke: rgb(0,0,0); stroke-width: 0; stroke-dasharray: none; stroke-linecap: butt; stroke-dashoffset: 0; stroke-linejoin: miter; stroke-miterlimit: 4; fill: rgb(55,122,246); fill-rule: nonzero; opacity: 1;" vector-effect="non-scaling-stroke"  transform=" translate(-86.82, -110.02)" d="M 163.3 94.537 L 23.2 36.4 C 17.334647230969153 33.96662333374867 10.59790398784839 35.05551053135352 5.797824844546987 39.212784316308884 C 0.9977457012455844 43.37005810126425 -1.0419257681894507 49.8822869938642 0.5289999999999999 56.035 L 13 104.936 L 74.053 104.936 C 76.86274866476415 104.936 79.14049999999999 107.21375133523584 79.1405 110.0235 C 79.1405 112.83324866476417 76.86274866476415 115.111 74.053 115.111 L 13 115.111 L 0.5299999999999994 164.011 C -1.038391357808198 170.1628775576082 1.0020721245202777 176.67297838457782 5.8012892925257695 180.82905387828242 C 10.600506460531262 184.98512937198706 17.33537375163906 186.07437983500867 23.199999999999996 183.643 L 163.29999999999998 125.511 C 169.56066886156424 122.91353196926396 173.64165020407447 116.80211292063328 173.64165020407447 110.024 C 173.64165020407447 103.24588707936671 169.56066886156424 97.13446803073603 163.29999999999998 94.53699999999999 Z" stroke-linecap="round" />
</g>
<g transform="matrix(0 0 0 0 0 0)"  >
<g style=""   >
</g>
</g>
<g transform="matrix(0 0 0 0 0 0)"  >
<g style=""   >
</g>
</g>
<g transform="matrix(0 0 0 0 0 0)"  >
<g style=""   >
</g>
</g>
<g transform="matrix(0 0 0 0 0 0)"  >
<g style=""   >
</g>
</g>
</svg>