<svg width="21" height="21" viewBox="0 0 21 21" fill="none" xmlns="http://www.w3.org/2000/svg">
<path d="M18.2532 20.7C19.3233 20.343 20.0693 19.425 20.6763 18.475C20.8812 18.1551 20.9932 17.7845 20.9997 17.4047C21.0062 17.0248 20.9071 16.6507 20.7133 16.3239C20.512 15.9749 20.2692 15.6516 19.9903 15.3609C19.1427 14.5116 18.1683 13.7991 17.1021 13.2488C16.5221 12.9498 15.83 13.0368 15.294 13.4078L13.1958 14.8598C13.133 14.9039 13.0603 14.9319 12.9841 14.9414C12.908 14.951 12.8306 14.9419 12.7588 14.9148C11.2404 14.3325 9.8619 13.4363 8.71354 12.2848C7.56202 11.1368 6.66576 9.7587 6.08336 8.24061C6.05645 8.16871 6.04748 8.09132 6.05724 8.01517C6.067 7.93902 6.09519 7.86639 6.13936 7.8036L7.59246 5.70552C7.96248 5.16951 8.04949 4.47748 7.75047 3.89846C7.2006 2.83193 6.48839 1.85728 5.63933 1.00936C5.34864 0.730399 5.02527 0.487627 4.67626 0.286337C4.34959 0.0927942 3.97559 -0.00622961 3.59595 0.000303597C3.2163 0.00683681 2.84593 0.11867 2.52612 0.323338C1.57505 0.930359 0.655991 1.67638 0.300967 2.74742C-0.873113 6.27454 1.48805 11.2087 5.63933 15.3609C9.79161 19.512 14.7259 21.8731 18.2542 20.699L18.2532 20.7Z" fill="#943BF6"/>
</svg>
