<svg width="28" height="18" viewBox="0 0 28 18" fill="none" xmlns="http://www.w3.org/2000/svg">
<path d="M4.30769 0C3.16522 0 2.06954 0.446217 1.26169 1.24049C0.453845 2.03476 0 3.11202 0 4.23529V13.7647C0 14.888 0.453845 15.9652 1.26169 16.7595C2.06954 17.5538 3.16522 18 4.30769 18H15.0769C16.2194 18 17.3151 17.5538 18.1229 16.7595C18.9308 15.9652 19.3846 14.888 19.3846 13.7647V4.23529C19.3846 3.11202 18.9308 2.03476 18.1229 1.24049C17.3151 0.446217 16.2194 0 15.0769 0H4.30769ZM22.4312 12.7398L26.4406 14.7102C26.6047 14.7911 26.7871 14.8294 26.9705 14.8214C27.1539 14.8135 27.3321 14.7596 27.4884 14.6648C27.6446 14.5701 27.7736 14.4377 27.8632 14.2801C27.9527 14.1226 27.9998 13.9452 28 13.7647V4.23529C28 4.05474 27.953 3.87718 27.8636 3.71949C27.7741 3.56181 27.6451 3.42924 27.4888 3.33439C27.3326 3.23953 27.1542 3.18554 26.9708 3.17755C26.7873 3.16955 26.6048 3.20782 26.4406 3.28871L22.4312 5.25918C22.1627 5.39122 21.9369 5.59422 21.7793 5.8454C21.6216 6.09658 21.5382 6.386 21.5385 6.68118V11.3188C21.5384 11.6138 21.6218 11.903 21.7795 12.154C21.9372 12.405 22.1629 12.6078 22.4312 12.7398Z" fill="#943BF6"/>
</svg>
